<?xml version="1.0" encoding="UTF-8"?>
<svg id="Layer_2" data-name="Layer 2" xmlns="http://www.w3.org/2000/svg" viewBox="0 0 147.29 146.08">
  <defs>
    <style>
      .cls-1 {
        fill: #a7a9ac;
        stroke-width: 0px;
      }
    </style>
  </defs>
  <g id="Layer_1-2" data-name="Layer 1">
    <g>
      <path class="cls-1" d="M79.88,14.73c.27.02.54.05.82.07.07,0,.14.01.22.02.28.03.57.05.85.08.07,0,.14.01.22.02.27.03.53.05.8.08.03,0,.07,0,.1.01.29.03.57.06.85.09.07,0,.14.02.21.02.28.03.55.06.82.09.06,0,.12.01.18.02.25.03.5.06.74.09.04,0,.08.01.12.02.27.03.53.07.79.1.07,0,.14.02.21.03.26.03.51.07.76.1.05,0,.1.01.16.02.23.03.46.06.69.09.04,0,.08.01.12.02.25.03.49.07.73.1.06,0,.12.02.18.03.24.03.47.07.69.1.03,0,.07,0,.1.01.21.03.42.06.62.09.04,0,.08.01.12.02.22.03.43.06.64.1.04,0,.09.01.13.02.21.03.42.06.61.09,0,0,.01,0,.02,0,.2.03.39.06.58.09.03,0,.05,0,.08.01.19.03.36.06.53.09.03,0,.05,0,.08.01.36.06.68.11.97.16,0,0,0,0,0,0h0c1.05.17,1.65.27,1.61.25-.05-.03-1.18-.39-2.87-.91-.07-.02-.13-.04-.2-.06-.1-.03-.21-.06-.31-.09-.06-.02-.13-.04-.19-.06-.07-.02-.14-.04-.22-.07-.09-.03-.19-.06-.28-.08-.09-.03-.19-.05-.28-.08-.08-.02-.17-.05-.25-.08-.06-.02-.12-.04-.19-.06-.14-.04-.27-.08-.41-.12-.05-.02-.1-.03-.16-.05-.12-.03-.23-.07-.35-.1-.05-.02-.11-.03-.16-.05-.15-.04-.31-.09-.47-.13-.03,0-.06-.02-.09-.03-.14-.04-.28-.08-.43-.12-.05-.02-.11-.03-.16-.05-.15-.04-.31-.09-.46-.13-.02,0-.04-.01-.07-.02-.16-.05-.33-.09-.5-.14-.05-.01-.1-.03-.15-.04-.15-.04-.31-.09-.46-.13-.03,0-.05-.02-.08-.02-.18-.05-.35-.1-.53-.15-.04-.01-.09-.02-.13-.04-.16-.04-.32-.09-.49-.13-.02,0-.04-.01-.07-.02-.18-.05-.35-.1-.53-.14-.05-.01-.1-.03-.15-.04-.15-.04-.3-.08-.45-.12-.03,0-.06-.02-.09-.02-.18-.05-.35-.09-.52-.14-.04-.01-.09-.02-.13-.03-.15-.04-.3-.08-.45-.12-.03,0-.06-.02-.09-.02-.17-.04-.34-.09-.52-.13-.04-.01-.08-.02-.12-.03-.14-.04-.28-.07-.42-.1-.04,0-.08-.02-.11-.03-.16-.04-.33-.08-.49-.12-.04,0-.07-.02-.11-.03-.14-.03-.27-.06-.4-.1-.04,0-.07-.02-.11-.02-.16-.04-.31-.07-.47-.11-.03,0-.06-.01-.09-.02-.13-.03-.26-.06-.38-.09-.03,0-.07-.02-.1-.02-.15-.03-.29-.06-.43-.09-.03,0-.05-.01-.08-.02-.12-.02-.24-.05-.35-.07-.03,0-.07-.01-.1-.02-.13-.03-.27-.05-.39-.07-.02,0-.04,0-.06-.01-.11-.02-.22-.04-.32-.06-.03,0-.06-.01-.09-.02-.12-.02-.23-.04-.35-.05-.01,0-.03,0-.04,0-.1-.01-.19-.03-.29-.04-.03,0-.05,0-.08,0-.1-.01-.2-.02-.29-.03,0,0-.01,0-.02,0-.09,0-.17-.01-.25-.02-.02,0-.04,0-.06,0-.08,0-.16,0-.23,0-.32,0-.68.02-1.07.07-.24.03-.48.06-.74.1-.04,0-.09.01-.13.02-3.71.62-8.9,2.54-8.91,2.54,0,0,.01,0,.02,0,.23-.03.47-.06.71-.09.05,0,.11-.01.16-.02.24-.03.48-.05.73-.07.05,0,.11,0,.16-.01.24-.02.48-.04.73-.05.03,0,.05,0,.08,0,.26-.02.53-.03.8-.04.06,0,.13,0,.19,0,.26-.01.53-.02.8-.03.05,0,.11,0,.17,0,.25,0,.5,0,.76-.01.04,0,.09,0,.13,0,.28,0,.56,0,.84,0,.07,0,.14,0,.21,0,.28,0,.56,0,.85.01.05,0,.11,0,.16,0,.26,0,.52.01.78.02.06,0,.12,0,.17,0,.29.01.57.02.86.03.08,0,.15,0,.23.01.29.01.58.03.87.04.05,0,.09,0,.14,0,.27.02.53.03.8.05.07,0,.14,0,.2.01.29.02.58.04.87.06.07,0,.15.01.22.02.29.02.58.05.88.07.04,0,.07,0,.11,0Z"/>
      <path class="cls-1" d="M66.66,22.23c.02.09.03.18.05.27,0,.02,0,.04.01.05.01.07.03.13.04.19,0,.02,0,.04.01.07.01.06.02.11.04.16,0,.02.01.05.02.07.01.05.02.1.03.14,0,.02.01.05.02.07.01.04.02.09.03.13,0,.02.01.05.02.07.01.04.02.08.03.11,0,.02.01.05.02.07.01.03.02.07.03.1,0,.02.02.04.02.07.01.03.02.06.03.09,0,.02.02.04.02.06.01.03.02.06.03.08,0,.02.02.04.02.06.01.03.02.05.03.07,0,.02.02.04.03.06,0,.02.02.04.03.07,0,.02.02.04.03.06,0,.02.02.04.03.06,0,.02.02.04.03.06,0,.02.02.04.03.06,0,.02.02.04.03.06,0,.02.02.04.03.06,0,.02.02.04.03.06.02.03.03.06.05.09,0,.02.02.03.02.05,0,0,0,.02.01.03,0,0,0,0,0,0,.26.56.48,1.11.51,2.4.07,2.42-1.79,3.57-2.12,4.18,0,.02-.02.04-.03.05-.02.04-.02.07-.02.11,0,0,0,0,0,0,0,.03,0,.07,0,.1,0,0,0,.02,0,.03,0,.02,0,.04.01.06,0,.01,0,.02.01.03,0,.02.01.03.02.04,0,0,0,.01,0,.02,0,0,0,.01.01.02,0,.01.02.03.02.04,0,0,0,0,0,.01,0,0,.01.01.02.02.01.01.02.02.03.04,0,0,0,0,0,0,0,0,.02.02.03.02.01.01.03.02.05.04.01,0,.02.02.03.02.02.01.04.02.06.03,0,0,.02.01.03.02,0,0,.02,0,.02.01.02.01.05.02.08.03.01,0,.03.01.05.02.03.01.06.02.09.03.02,0,.03.01.05.02.04.01.07.02.11.03.02,0,.03,0,.04.01.06.02.11.03.18.05,0,0,0,0,0,0,.06.02.13.03.2.05.02,0,.04.01.07.02.05.01.11.02.16.04.03,0,.05.01.08.02.06.01.12.03.18.04.03,0,.06.01.08.02.08.02.16.03.24.05.01,0,.02,0,.04,0,.1.02.2.04.31.07.23.05.42.07.58.07.48,0,.65-.24.66-.63.02-.52-.24-1.33-.44-2.25-.05-.23-.08-.41-.08-.56-.04-1.03.9-.27,1.04-1.61.13-1.24-.27-2.37-.68-4.22-.06-.28-.13-.59-.19-.91-.03-.16-.06-.33-.09-.5-.48-2.73-1.93-6.11-5.3-6.11s-6.75,4.98-6.75,4.98c-.02.07-.03.13-.05.19,0,.02,0,.04,0,.06,0,.03-.01.06-.01.09,0,.02,0,.03,0,.05,0,.02,0,.04,0,.06,0,.01,0,.03,0,.04.03.16.18.12.41-.04.02-.01.04-.03.06-.05.02-.01.04-.03.06-.05.02-.02.04-.03.07-.05.02-.02.04-.03.06-.05.02-.02.05-.04.07-.06.01-.01.03-.03.04-.04.06-.05.12-.1.18-.16.01-.01.03-.03.04-.04.04-.03.08-.07.12-.11,0,0,.01-.01.02-.02.34-.32.73-.7,1.16-1.08.01,0,.02-.02.03-.03.07-.07.14-.13.22-.2,0,0,0,0,0,0,.07-.07.15-.13.23-.2.01-.01.02-.02.04-.03.06-.05.12-.11.18-.16.02-.02.04-.03.06-.05.06-.05.13-.11.19-.16,0,0,.02-.02.03-.02.07-.06.15-.12.22-.17.02-.01.04-.03.05-.04.06-.04.11-.09.17-.13.02-.02.04-.03.06-.05.07-.05.13-.09.2-.13,0,0,.02-.01.02-.02.07-.05.14-.09.22-.14.02-.01.04-.02.06-.03.05-.03.11-.06.16-.09.02-.01.04-.02.06-.03.07-.03.13-.07.2-.09,0,0,0,0,.01,0,.07-.03.14-.06.21-.08.02,0,.04-.01.06-.02.05-.02.1-.03.15-.04.02,0,.04-.01.06-.01.07-.01.13-.03.19-.03,2.25-.24,3.94,1.61,4.42,4.5Z"/>
      <path class="cls-1" d="M72.02,52.11c0-.1-.02-.21-.03-.31,0-.04-.01-.09-.02-.13-.01-.11-.03-.22-.05-.33,0-.03,0-.06-.01-.09-.02-.14-.05-.27-.08-.4,0-.03-.01-.06-.02-.09-.02-.1-.05-.2-.07-.3-.01-.04-.02-.08-.03-.12-.02-.09-.05-.18-.08-.27-.01-.04-.02-.07-.03-.11-.04-.12-.08-.25-.12-.37,0,0,0,0,0-.01-.04-.12-.08-.23-.12-.34-.01-.04-.03-.07-.04-.11-.03-.08-.06-.16-.09-.24-.02-.04-.03-.08-.05-.11-.03-.08-.07-.17-.11-.25-.01-.03-.02-.05-.03-.08-.05-.1-.09-.2-.14-.3-.01-.03-.03-.06-.04-.09-.03-.07-.07-.14-.1-.21-.02-.04-.04-.07-.06-.11-.03-.06-.06-.12-.1-.18-.02-.03-.03-.06-.05-.1-.04-.08-.08-.15-.13-.22-.02-.03-.03-.05-.05-.08-.04-.06-.07-.12-.11-.18-.02-.03-.04-.06-.06-.1-.03-.04-.05-.08-.08-.12-.02-.03-.04-.06-.06-.09-.03-.04-.05-.08-.07-.11-.02-.03-.04-.06-.05-.08-.37-.54-.63-.85-.63-.85,0,0,1.45,3.7-1.29,9.8-1.5,3.34-3.81,7.21-5.6,10.03,0,0,0,0,0-.01-.05.08-.09.15-.14.22,0,.01-.02.03-.03.04-.09.14-.18.28-.27.42,0,.01-.02.02-.02.04-.48.74-.9,1.39-1.25,1.91,0,0-.01.02-.02.02-.06.09-.12.18-.17.26-.02.02-.03.04-.04.07-.04.07-.09.13-.13.19-.02.03-.03.05-.05.07-.03.05-.07.1-.1.15-.02.02-.03.05-.05.07-.03.04-.06.09-.08.12-.01.02-.02.04-.04.05-.03.04-.05.07-.07.1,0,.01-.02.03-.03.04-.02.03-.04.06-.05.08,0,0-.01.02-.02.02-.04.05-.06.08-.06.08,0,0,9.32-7.55,11.57-13.18.06-.16.12-.32.17-.48.02-.05.03-.1.05-.14.04-.11.07-.23.1-.34.01-.05.03-.1.04-.15.03-.12.06-.24.09-.36,0-.03.02-.07.02-.11.03-.15.06-.31.08-.46,0-.04,0-.07.01-.11.02-.12.03-.24.04-.36,0-.05,0-.1.01-.15,0-.11.01-.22.02-.33,0-.04,0-.09,0-.13,0-.3,0-.59-.02-.88,0-.04,0-.08-.01-.13Z"/>
      <path class="cls-1" d="M65.1,87.52c-1.13,1.12-11.09,17.52-10.77,26.04.32,8.52,4.5,11.41,4.5,11.41,0,0-4.34-15.11,6.27-37.45Z"/>
      <path class="cls-1" d="M91.3,33.54c.15.21.29.42.44.64.02.03.04.06.06.08.14.21.28.42.42.63.02.03.04.06.06.08.14.22.29.44.43.66,0,.01.01.02.02.03.61.95,1.2,1.92,1.77,2.91,0,0,0,0,0,.01.12.21.24.42.36.63.03.06.06.11.09.17.11.19.22.39.32.58.04.07.08.15.12.22.1.19.2.37.3.56.04.08.09.16.13.25.1.18.19.37.29.55.04.08.09.17.13.25.1.19.19.37.28.56.04.07.07.15.11.22.32.65.64,1.31.93,1.97.03.07.06.13.09.2.08.17.15.34.22.51.05.11.1.22.14.33.07.16.14.32.2.47.05.12.1.24.15.36.06.15.13.3.19.46.05.13.1.25.15.38.06.15.12.3.17.44.05.13.1.26.15.39.05.14.11.29.16.43.05.14.1.27.15.41.05.14.1.28.15.41.05.15.11.31.16.46.04.12.08.24.12.36.09.26.17.53.25.79.04.11.07.22.1.34.05.16.1.32.15.48.04.12.07.24.1.36.04.15.09.3.13.45.03.12.06.24.1.37.04.15.08.3.11.45.03.12.06.24.09.36.04.15.07.3.1.45.03.12.05.23.08.35.03.15.06.31.1.46.02.11.04.22.07.33.03.17.06.34.09.5.02.09.03.18.05.28.04.26.08.51.12.77,0,.02,0,.05,0,.07.03.23.06.46.09.69,0,.09.02.17.03.26.02.16.03.33.05.49,0,.1.01.19.02.29.01.15.02.3.03.45,0,.1,0,.2.01.3,0,.15.01.29.01.43,0,.1,0,.2,0,.29,0,.14,0,.29,0,.43,0,.09,0,.19,0,.28,0,.15-.01.3-.02.44,0,.08,0,.17-.01.25-.01.18-.03.35-.04.52,0,.05,0,.1-.01.16-.02.22-.05.44-.08.66,0,.05-.02.1-.03.16-.03.16-.05.32-.08.48-.02.08-.03.15-.05.23-.03.13-.06.27-.09.4-.02.08-.04.16-.06.24-.03.12-.07.24-.1.37-.02.08-.05.16-.08.24-.04.12-.08.23-.12.35-.03.08-.06.16-.09.23-.05.12-.09.23-.14.35-.03.07-.06.14-.09.21-.06.12-.12.24-.18.36-.03.06-.06.12-.09.18-.09.18-.19.35-.29.52,0,0,.01,0,.03-.02,0,0,.01,0,.02-.01,0,0,.02-.01.03-.02s.02-.01.03-.02c.01,0,.03-.02.04-.03.01,0,.02-.02.04-.03.02-.01.04-.03.05-.05.01-.01.03-.02.04-.04.02-.02.04-.04.07-.06.02-.01.03-.03.05-.04.02-.02.05-.05.08-.07.02-.02.03-.03.05-.05.03-.03.06-.06.09-.09.02-.02.04-.04.06-.06.03-.03.06-.07.1-.1.02-.02.04-.04.06-.06.03-.04.07-.08.11-.12.02-.02.04-.05.06-.07.04-.04.08-.09.12-.14.02-.03.04-.05.07-.08.04-.05.08-.1.12-.15.02-.03.05-.06.07-.09.04-.05.09-.11.13-.17.02-.03.05-.06.07-.1.05-.06.09-.12.14-.19.02-.03.05-.07.07-.1.05-.07.1-.14.14-.21.02-.04.05-.07.07-.11.05-.08.1-.15.15-.23.02-.04.05-.08.07-.11.05-.08.1-.17.15-.26.02-.04.04-.08.07-.12.05-.09.11-.19.16-.28.02-.04.04-.08.06-.12.05-.1.11-.2.16-.31.02-.04.04-.08.06-.12.06-.11.11-.23.17-.35.02-.03.03-.07.05-.1.06-.13.12-.26.18-.4,0-.02.02-.04.03-.07.42-.97.84-2.13,1.2-3.48,0-.04.02-.07.03-.11.05-.18.09-.37.14-.56.02-.06.03-.12.05-.19.04-.18.08-.36.12-.55.02-.08.04-.16.05-.24.04-.18.07-.36.11-.55.02-.09.04-.19.05-.28.03-.18.06-.37.09-.55.02-.11.04-.21.05-.32.03-.18.06-.37.08-.56.02-.16.05-.33.07-.49v-.1c.05-.31.09-.62.12-.94,1.12-10.77-1.77-13.82-1.77-13.82,0,0,5.46,3.54,6.11,9.48,1.03-1.03-.49-23.26-20.9-27.41-.73-.15-1.48-.27-2.26-.37-.78-.1-1.58-.18-2.41-.22-1.66-.1-3.42-.09-5.28.04.95.48,1.94,1.13,2.94,1.89,0,0,0,0,0,0,.08.07.17.13.26.2,0,0,0,0,0,0,.34.27.68.55,1.03.85h0s0,0,0,0c2.72,2.36,5.51,5.59,8.08,9.27.01.02.02.03.03.05Z"/>
      <path class="cls-1" d="M46.33,37.19c-1.92,1.58.25,2.01.25,2.34,0,.43-1.49,2.84-1.49,2.84,0,0,1.78-1.74,3.28-2.56,1.49-.82,5.21-2.51,5.21-2.51,0,0-3.95-.15-5.2-.68-.75-.32-1.53.14-2.04.56Z"/>
      <path class="cls-1" d="M68.23,9.49c-4.58.88-9,5.22-9,5.22,6.99-4.18,17.84-5.14,17.84-5.14,0,0-4.26-.96-8.84-.08Z"/>
      <path class="cls-1" d="M94.71,73.5s5.04-21.39-5.43-37.35c0,0,0,0,0,0-.17-.25-.33-.5-.51-.75-.11-.16-.21-.31-.33-.47,2.64,5.93,3.67,11.22,3.63,16.03h0c0,.31-.01.61-.02.91,0,0,0,0,0,.01-.53,13.75-9.85,23.52-15.5,33.05,0,.01-.01.02-.02.03-.45.76-.88,1.52-1.28,2.29-.02.04-.04.08-.06.12-.1.2-.21.4-.31.61-.03.06-.06.12-.09.17-.1.2-.19.4-.29.6-.02.05-.04.09-.07.14-.22.49-.43.98-.63,1.47-.03.07-.05.13-.08.2-.07.18-.14.35-.2.53-.03.08-.06.15-.08.23-.06.18-.12.35-.18.53-.02.07-.05.14-.07.2-.08.24-.15.49-.22.73,0,0,0,.02,0,.02-.06.23-.12.47-.18.7-.02.08-.03.15-.05.23-.04.17-.08.34-.11.51-.02.09-.03.17-.05.26-.03.17-.06.34-.09.52-.01.08-.03.15-.04.23-.04.25-.07.49-.09.74,0,0,16.23-17.52,22.34-22.5Z"/>
      <path class="cls-1" d="M117.71,20.16l-5.4-4.57c-1.3-1.1-3.45-2.17-4.96-2.9-5.5-2.64-11.63-4.68-17.45-6.43-6.28-1.9-13.17-3.02-19.76-2.33l2.28-3.94-8.54,2.93c-4.72,1.62-9.23,4.13-12.75,7.71-1.29,1.31-2.81,3.16-3.62,4.86-.37.67-.65,1.43-.85,2.23-.2.78-.33,1.61-.41,2.43H0l25.87,44.81v-.14s3.47,5.78,3.47,5.78c-.24,1.75-.19,3.48.41,4.87.05.11.1.21.15.31.81,1.55,2.56,2.88,4.46,3.94.01,0,.02.01.03.02l13.92,24.11c-1.03,3.19-1.6,6.41-1.53,9.63.33,14.98,13.42,23.71,25.12,30.3l.67-.95,2.01,3.23,25.63-44.4,6.69-11.58c2.32-2.9,4.55-5.89,6.6-9.05,1.51-2.33,2.92-4.72,4.19-7.19,1.54-2.99,2.84-6.04,3.87-9.16l25.72-44.54h-29.58ZM26.01,47.56c-.13.16-.25.33-.37.49-.02.02-.03.04-.04.07-.1.14-.2.29-.29.43-.04.06-.07.11-.1.17-.07.11-.14.22-.2.33-.04.06-.07.12-.11.18-.06.11-.12.22-.18.32-.03.06-.06.12-.09.18-.06.12-.12.24-.18.36-.02.05-.04.09-.06.14-.07.17-.15.33-.21.5-.01.03-.03.07-.04.1-.05.13-.1.26-.15.4-.02.06-.04.11-.06.17-.04.11-.07.22-.1.33-.02.06-.04.12-.05.18-.03.11-.06.22-.09.33-.01.06-.03.11-.04.17-.12.52-.2,1.03-.24,1.54L5.85,23.54h40.28c-.26.28-.53.57-.81.87-.06.06-.12.13-.18.2-.09.1-.18.19-.27.29-.06.07-.12.14-.18.2-.09.1-.18.2-.27.3-.06.07-.12.14-.18.21-.09.11-.19.21-.28.32-.06.07-.12.13-.17.2-.1.12-.21.24-.31.36-.05.05-.09.11-.14.16-.15.17-.3.35-.44.52-.02.02-.04.05-.06.07-.13.15-.25.3-.37.45-.05.06-.1.12-.15.18-.09.11-.18.23-.27.34-.05.07-.11.14-.16.21-.08.1-.16.21-.24.31-.05.07-.11.14-.16.21-.07.1-.15.2-.22.3-.05.07-.1.14-.16.22-.07.1-.14.19-.2.29-.05.07-.1.14-.15.21-.06.09-.13.19-.19.28-.04.07-.09.14-.13.2-.06.09-.12.19-.17.28-.04.06-.08.12-.11.18-.06.1-.11.2-.17.3-.03.05-.06.1-.08.15-.08.14-.15.28-.21.42h-19.6l7.9,13.68c-.17.16-.34.32-.5.48-.05.05-.1.1-.15.15-.11.11-.22.22-.32.33-.06.06-.11.12-.16.18-.1.11-.19.21-.28.32-.05.06-.1.12-.15.18-.1.11-.19.23-.28.34-.04.05-.08.1-.12.15ZM33.54,75.05c-.27-.27-.49-.54-.64-.82-1.16-2.22,1.11-7.89,1.11-7.89.04.21.08.41.12.6.02.08.03.15.05.23.02.11.05.22.07.33.02.09.04.18.07.27.02.08.04.17.06.25.02.09.05.18.07.27,1.32,4.92,3.01,4.65,3.01,4.65-.29-1.83.77-2.51.77-2.51.67,1.93,4.05,2.8,4.05,2.8-.77-.87,1.03-3.66,1.03-3.66.39,2.41,4.76,6.36,4.76,6.36-.3.12-.59.22-.87.32,0,0,0,0,0,0-.06.02-.11.04-.17.05-.08.03-.17.06-.25.08-.1.03-.2.06-.29.09-.07.02-.15.05-.22.07-.13.04-.26.07-.39.1-.08.02-.15.04-.23.06-.11.03-.22.05-.32.07-.07.01-.13.03-.19.04-.09.02-.17.03-.25.05-.07.01-.13.02-.19.03-.08.01-.16.03-.23.04-.06,0-.12.02-.18.03-.08,0-.15.02-.23.03-.06,0-.11.01-.17.02-.08,0-.16.01-.24.02-.04,0-.09,0-.13,0-.12,0-.23,0-.34.01-.04,0-.08,0-.12,0-.07,0-.15,0-.22,0-.05,0-.09,0-.14,0-.06,0-.12,0-.18-.01-.04,0-.09,0-.13-.01-.06,0-.11-.01-.17-.02-.04,0-.08,0-.12-.02-.06,0-.11-.02-.17-.03-.03,0-.07-.01-.1-.02-.07-.01-.13-.03-.19-.04-.02,0-.04,0-.06-.01-.08-.02-.16-.04-.23-.06-.03,0-.05-.02-.08-.02-.05-.01-.09-.03-.14-.04-.03,0-.06-.02-.08-.03-.04-.01-.08-.03-.12-.04-.03-.01-.05-.02-.08-.03-.04-.02-.07-.03-.11-.05-.02-.01-.05-.02-.07-.03-.04-.02-.07-.04-.11-.05-.02,0-.04-.02-.05-.03-.05-.03-.1-.05-.15-.08,0,0-.01,0-.02-.01-.04-.02-.08-.05-.11-.07-.02,0-.03-.02-.04-.03-.03-.02-.05-.04-.08-.05-.01-.01-.03-.02-.04-.03-.02-.02-.04-.03-.07-.05-.01,0-.02-.02-.04-.03-.02-.02-.04-.03-.06-.05,0,0-.02-.02-.03-.02-.02-.02-.04-.04-.06-.06,0,0,0,0-.01-.01-.02-.02-.04-.04-.06-.06,0,0,0,0,0,0-.02-.02-.03-.03-.04-.05,0,0,0,0-.01-.01,0,0-.01-.01-.02-.02h0c-.04-.05-.06-.08-.06-.08-.18.65,0,1.56.18,2.16,0,.02.01.04.02.06,0,.03.02.07.03.1,0,.02.01.04.02.06,0,.03.02.06.03.09.01.04.02.07.03.1,0,.02.01.03.02.05,0,.02.02.05.02.07,0,0,0,.01,0,.02.02.07.04.1.04.1h0s0,0,0,0c0,0-4.53-1.6-6.44-3.48ZM48.5,81.25s-.01.05-.02.07c-.01.04-.02.08-.03.13,0,.03-.02.06-.02.1,0,.04-.02.07-.03.11,0,.04-.02.07-.03.11,0,.04-.02.07-.03.11,0,.04-.02.08-.03.12,0,.04-.02.07-.03.11,0,.04-.02.08-.03.13,0,.04-.02.08-.03.12,0,.04-.02.09-.03.13,0,.04-.02.08-.03.12,0,.05-.02.1-.03.15,0,.04-.02.08-.02.12,0,.05-.02.1-.03.15,0,.04-.02.09-.03.13,0,.05-.02.1-.03.16,0,.04-.02.09-.02.13-.01.06-.02.11-.03.17,0,.04-.01.08-.02.12-.01.06-.02.13-.03.2,0,.03,0,.06-.01.09-.02.14-.04.28-.07.42,0,.05-.02.1-.02.15,0,.06-.02.13-.03.19,0,.05-.02.11-.02.16,0,.07-.02.14-.03.2,0,.06-.02.11-.02.17,0,.07-.02.14-.03.2,0,.06-.02.12-.02.19,0,.07-.02.14-.03.21,0,.06-.02.13-.02.2,0,.07-.02.15-.03.22,0,.07-.02.13-.02.2,0,.08-.02.15-.03.23,0,.07-.02.14-.02.21,0,.08-.02.16-.02.24,0,.07-.01.14-.02.22,0,.08-.02.16-.02.25,0,.08-.01.15-.02.23,0,.08-.02.16-.02.25,0,.08-.01.17-.02.25,0,.08-.01.17-.02.25,0,.09-.01.18-.02.26,0,.08-.01.16-.02.25,0,.11-.02.23-.03.34-.01.14-.02.27-.03.41,0,.11-.01.21-.02.32,0,.09-.01.18-.02.27,0,.1-.01.2-.02.3,0,.1-.01.19-.02.29,0,.1-.01.2-.02.29,0,.1-.01.2-.02.31,0,.1-.01.2-.02.31,0,.1-.01.2-.02.31,0,.11-.01.21-.02.32,0,.11,0,.21-.01.32-.03.61-.05,1.25-.07,1.91l-7.28-12.61-.88-1.53c2.56.79,4.76,1.18,4.76,1.18,0,0-2.22-2.36-.83-2.64.84-.17,3.04-.16,4.65-.12l1.11,1.92c-.02.06-.03.12-.05.19ZM78.43,26.28s.02.03.03.04c-.16-.14-.3-.29-.47-.43,14.35,37.38-22.13,40.71-27.64,64.61,0,0,0,0,0-.02,0,0,0,0,0,0,0-.03,0-.08,0-.16h0c0-.12,0-.3,0-.53h0c0-.15,0-.32.01-.52,0,0,0,0,0,0h0c.09-3.28.76-12.46,5.29-19.97,5.48-9.08,9.13-16.34,6.93-29.05-1.64,4.16-5.2,6.77-7.66,7.54-3.09.96-10.22,6.08-10.61,7.62-.39,1.54.96,2.6,1.93,6.17.96,3.57-2.41.58-2.31,3.18.15,4,14.46-5.99,15.98-7.96,0,0-.8,3.78-6.19,7.23-4.74,3.04-9.79,4.34-13.67,3.13-4.19-.89-10.27-5.42-10.27-9.21,0-2.11,1.96-4.24,3.42-5.81,0,0,0,0,0,0,.07-.08.14-.15.21-.23.05-.05.09-.1.13-.14.02-.02.04-.04.06-.07.05-.05.09-.1.14-.15.01-.01.03-.03.04-.04.06-.06.11-.12.17-.19.01-.01.02-.02.03-.04.04-.05.08-.1.12-.14.01-.02.03-.03.04-.05.04-.05.08-.09.12-.14,0,0,.02-.02.02-.03.04-.05.08-.11.12-.16,0-.01.02-.02.02-.03.03-.04.06-.08.08-.12,0-.01.02-.03.03-.04.03-.04.05-.09.08-.13,0,0,0,0,0-.01.02-.04.05-.09.06-.13,0-.01,0-.02.01-.03.01-.03.02-.06.03-.09,0,0,0-.02,0-.03,0-.04.02-.07.02-.1.01-.25-.09-.35-.28-.34-.13,0-.3.06-.5.15-.74.34-1.86,1.12-2.59,1.19-.04,0-.08,0-.11,0-.14,0-.29,0-.43-.02-.56-.04-1.07-.15-1.48-.14-.31,0-.57.08-.75.3-.27.33-.95.39-1.5.39-.3,0-.56-.03-.69-.04-.05,0-.08,0-.08,0,0,0,.02-.04.09-.13.03-.04.06-.09.11-.14.21-.26.63-.74,1.44-1.55.36-.36,1.09-1,2.02-1.79,2.81-2.39,7.48-6.19,9.36-7.85,2.95-2.61.59-6.42,8.26-13.03.54-.33,1.23-.75,2-1.17h0s.01,0,.01,0h.01s.01-.01.01-.01h.01s.01-.01.01-.01h0s0,0,0,0h.01s.01-.01.01-.01h.01s.01-.01.01-.01h.01s.01-.01.01-.01h.01s.01-.01.01-.01h0s0,0,0,0h.01s.01-.01.01-.01h.01s.01-.01.01-.01h.01s.01-.01.01-.01h.01s.01-.01.01-.01h0s0,0,0,0h.01s.01-.01.01-.01h.01s.01-.01.01-.01h.01s.01-.01.01-.01h.01s.01-.01.01-.01h0s0,0,0,0h.01s.01-.01.01-.01h.01s.01-.01.01-.01l.09-.05h.01s.01-.01.01-.01h.01s.01-.01.01-.01h.01s0-.01,0-.01h0s.01,0,.01,0h.01s.01-.01.01-.01h.01s.01-.01.01-.01h.01s.07-.04.07-.04h0s0,0,0,0c.17-.09.34-.17.51-.26.25-.12.49-.24.74-.36l.05-.03.05-.02.05-.02h.03s.03-.02.03-.02l.05-.02.05-.02.05-.02.05-.02.05-.02.16-.07h0s.05-.02.05-.02h.03s.03-.02.03-.02l.05-.02h.03s.02-.02.02-.02l.05-.02h.03s.02-.02.02-.02l.05-.02.05-.02.05-.02h.03s.02-.02.02-.02l.05-.02h.03s.02-.02.02-.02l.08-.03h0s.02,0,.02,0l.05-.02h.03s.02-.02.02-.02l.04-.02s0,0,0,0l.04-.02h.02c.58-.22,1.14-.38,1.66-.47,0,0-2.75-.05-5.37.16-.06-1.62-.02-3.73.41-5.37.02-.07.04-.14.06-.22.02-.06.03-.12.05-.18.12-.39.27-.75.45-1.05,0,0,3.21-7.07,14.46-10.93l-1.77,3.05s8.68-4.82,25.71.32c17.04,5.14,21.21,8.68,21.21,8.68l-10.93-.96c56.48,34.37-30.45,70.94-36.09,103.47,0,.02,0,.03,0,.05-.02.14-.05.28-.07.41,0,.02,0,.04,0,.07-.06.4-.1.8-.14,1.19,0,.04,0,.08-.01.12,0,0,0,.01,0,.02,0,.12-.02.25-.02.37,0,.03,0,.06,0,.08,0,.02,0,.03,0,.05,0,.12-.01.23-.01.35,0,.05,0,.1,0,.14,0,.12,0,.24,0,.36,0,0,0,.02,0,.03,0,.25,0,.5.02.75,0,.05,0,.1,0,.15,0,.1.01.21.02.31,0,.07,0,.13.02.2,0,.1.02.2.03.3,0,.07.02.14.02.21.01.1.02.2.03.3,0,.07.02.14.03.22.02.17.05.33.08.5.01.08.03.16.04.24.02.09.04.18.05.27.02.08.03.16.05.25.02.09.04.17.06.26.02.09.04.18.07.27.02.08.04.16.06.24.04.16.09.31.14.47.02.07.05.14.07.21.03.1.06.2.1.3.03.08.05.15.08.23.03.09.07.19.1.28.03.08.06.15.09.23.04.11.08.21.13.32.03.06.05.13.08.19.07.16.14.32.21.48.03.06.06.12.09.18.05.11.1.22.16.33.03.07.07.14.1.21.05.1.11.21.16.31.04.07.07.13.11.2.07.12.13.24.2.36.03.05.05.1.08.14.1.16.2.33.3.49.03.05.07.11.1.16.07.12.15.23.23.35.04.06.08.12.13.19.08.11.15.22.23.33.04.06.08.12.13.18.1.14.2.27.3.41.02.03.05.06.07.1.13.17.26.33.39.5.04.05.08.1.12.15.1.12.19.24.29.35.05.06.1.12.15.18.1.11.2.23.3.34.05.05.1.11.15.16.13.15.27.3.41.45.02.02.03.03.05.05.16.17.32.33.48.5.05.05.1.1.15.15.12.12.24.23.36.35.06.06.12.11.18.17.12.12.25.23.37.35.06.05.11.1.17.15.18.17.36.33.55.49C5.98,102.78,117.75,61.53,78.43,26.28ZM79.16,131.43c.13-1.62.21-3.28.59-4.93,1.36-5.92,8.15-14.16,16-23.81l-16.59,28.74ZM75.68,133.13c-.9-1.24-1.67-2.44-2.33-3.61-.06-.11-.12-.22-.18-.33-15.23-27.74,34.53-35.56,47.74-81.36h0s.01-.04.01-.04c.31,40.75-51.3,63.42-45.24,85.34ZM123.27,55.02c.05-.3.09-.59.13-.89.01-.1.03-.19.04-.29.03-.2.05-.4.08-.6.01-.11.03-.23.04-.34.02-.18.04-.37.06-.55.01-.12.02-.24.03-.36.02-.18.03-.36.04-.55,0-.12.02-.24.02-.35.01-.19.02-.38.03-.58,0-.11.01-.21.01-.32,0-.24.01-.49.02-.73,0-.05,0-.11,0-.16,0-.3,0-.59,0-.89,0-.09,0-.18,0-.27,0-.21,0-.41-.02-.62,0-.11-.01-.22-.02-.34,0-.19-.02-.37-.03-.56,0-.12-.02-.24-.03-.35-.01-.18-.03-.37-.05-.55-.01-.12-.02-.23-.03-.35-.02-.19-.04-.38-.07-.57-.01-.11-.02-.21-.04-.32-.03-.23-.06-.46-.1-.69-.01-.07-.02-.14-.03-.2-.05-.3-.1-.59-.15-.89-.01-.07-.03-.14-.04-.2-.17-.89-.38-1.77-.63-2.66l4.67-8.08h-8.13c-.19-.33-.39-.66-.6-.99-.07-.11-.15-.22-.22-.34-.14-.22-.28-.44-.42-.65-.09-.13-.18-.26-.27-.4-.14-.2-.27-.39-.41-.59-.1-.14-.2-.28-.3-.42-.14-.19-.28-.38-.42-.57-.11-.14-.22-.28-.33-.43-.14-.19-.29-.37-.44-.56-.11-.14-.23-.28-.35-.43-.15-.19-.31-.37-.47-.56-.12-.14-.24-.28-.36-.42-.16-.19-.33-.38-.5-.57-.12-.14-.24-.27-.37-.41-.27-.3-.55-.59-.83-.89h28.66l-.43.75h0l-17.74,30.72Z"/>
    </g>
  </g>
</svg>